<svg viewBox="0 -16 512 512" xmlns="http://www.w3.org/2000/svg"><path d="m391 225h90v240h-90zm0 0" fill="#5a5a5a"/><path d="m436 225h45v240h-45zm0 0" fill="#444"/><path d="m361 450h151v30h-151zm0 0" fill="#6e6e6e"/><path d="m436 450h76v30h-76zm0 0" fill="#5a5a5a"/><path d="m31 225h90v240h-90zm0 0" fill="#5a5a5a"/><path d="m76 225h45v240h-45zm0 0" fill="#444"/><path d="m512 90-76 30-75-30 30-90h90zm0 0" fill="#ff7816"/><path d="m512 90-76 30v-120h45zm0 0" fill="#ff4b00"/><path d="m151 90-75 30-76-30 31-90h90zm0 0" fill="#ff7816"/><path d="m151 90-75 30v-120h45zm0 0" fill="#ff4b00"/><path d="m129.789062 90h-129.789062v128.789062l52.210938-8.789062 90-90zm0 0" fill="#6e6e6e"/><path d="m219.789062 90h-90l-129.789062 128.789062v21.210938h69.789062l72.421876-30 90-90zm0 0" fill="#ffd400"/><path d="m322.300781 120-90 90-72.601562 30h-90l150-150h90zm0 0" fill="#6e6e6e"/><path d="m322.300781 120-66.300781 66.300781v-96.300781h53.699219zm0 0" fill="#5a5a5a"/><path d="m412.300781 120-90 90-66.300781 27.300781-6.300781 2.699219h-90l150-150h90zm0 0" fill="#ffd400"/><path d="m412.300781 120-90 90-66.300781 27.300781v-93.601562l53.699219-53.699219h90zm0 0" fill="#fdbf00"/><path d="m489.699219 90-8.699219 51.300781-68.699219 68.699219-72.601562 30h-90l150-150zm0 0" fill="#6e6e6e"/><path d="m489.699219 90-8.699219 51.300781-68.699219 68.699219-72.601562 30h-83.699219v-6.300781l143.699219-143.699219zm0 0" fill="#5a5a5a"/><path d="m489.789062 90-150 150h172.210938v-150zm0 0" fill="#fdbf00"/><path d="m0 450h151v30h-151zm0 0" fill="#6e6e6e"/><path d="m76 450h75v30h-75zm0 0" fill="#5a5a5a"/></svg>